<svg width="47" height="46" viewBox="0 0 47 46" fill="none" xmlns="http://www.w3.org/2000/svg">
<path d="M21.5904 16C20.887 16.0005 20.3177 16.5704 20.3182 17.2727C20.3177 17.975 20.8875 18.5449 21.591 18.5455H22.8637V17.2732C22.8642 16.571 22.2944 16.001 21.5904 16C21.591 16 21.591 16 21.5904 16" fill="#36C5F0"/>
<path d="M21.4998 19.8182H17.8639C17.1101 19.8188 16.4994 20.3886 16.5 21.0907C16.4989 21.7928 17.1095 22.3627 17.8633 22.3637H21.4998C22.2536 22.3632 22.8642 21.7934 22.8636 21.0912C22.8642 20.3886 22.2536 19.8188 21.4998 19.8182Z" fill="#36C5F0"/>
<path d="M30.5 21.0907C30.5006 20.3886 29.9307 19.8188 29.2273 19.8182C28.5239 19.8188 27.9541 20.3886 27.9546 21.0907V22.3637H29.2273C29.9307 22.3632 30.5006 21.7934 30.5 21.0907Z" fill="#2EB67D"/>
<path d="M26.6818 20.9997V17.3634C26.6823 16.6116 26.1129 16.0011 25.4093 16C24.7058 16.0006 24.1358 16.6111 24.1364 17.3634V20.9997C24.1353 21.752 24.7052 22.3625 25.4088 22.3636C26.1124 22.3631 26.6823 21.7526 26.6818 20.9997Z" fill="#2EB67D"/>
<path d="M25.4091 30C26.1125 29.9995 26.6823 29.4296 26.6818 28.7273C26.6823 28.025 26.1125 27.4551 25.4091 27.4546H24.1364V28.7273C24.1358 29.4291 24.7056 29.999 25.4091 30Z" fill="#ECB22E"/>
<path d="M25.4997 26.1818H29.1361C29.8899 26.1813 30.5005 25.6115 30.5 24.9093C30.5011 24.2072 29.8905 23.6374 29.1367 23.6364H25.5002C24.7464 23.6369 24.1358 24.2067 24.1364 24.9088C24.1358 25.6115 24.7459 26.1813 25.4997 26.1818Z" fill="#ECB22E"/>
<path d="M16.5 24.9091C16.4995 25.6114 17.0693 26.1813 17.7727 26.1818C18.4762 26.1813 19.046 25.6114 19.0455 24.9091V23.6364H17.7727C17.0693 23.6369 16.4995 24.2068 16.5 24.9091Z" fill="#E01E5A"/>
<path d="M20.3182 24.9993V28.636C20.3172 29.3883 20.8871 29.9989 21.5907 30C22.2943 29.9994 22.8642 29.3889 22.8637 28.6365V25.0004C22.8647 24.248 22.2948 23.6375 21.5912 23.6364C20.8871 23.6364 20.3177 24.2469 20.3182 24.9993C20.3182 24.9998 20.3182 24.9993 20.3182 24.9993Z" fill="#E01E5A"/>
</svg>
