<svg width="20" height="20" viewBox="0 0 20 20" fill="none" xmlns="http://www.w3.org/2000/svg">
<path d="M11.3819 20C10.0438 20 9.06917 19.6564 8.45675 18.969C7.84511 18.282 7.5389 17.541 7.5389 16.747C7.5389 16.4567 7.59214 16.2125 7.69891 16.0139C7.80312 15.8181 7.95425 15.6558 8.13684 15.5441C8.32181 15.4295 8.54943 15.3724 8.82009 15.3724C9.09063 15.3724 9.31798 15.4295 9.50321 15.5441C9.68818 15.6585 9.83417 15.8154 9.94081 16.0139C10.0476 16.2125 10.1009 16.4567 10.1009 16.747C10.1009 17.0983 10.0227 17.3845 9.86616 17.6061C9.70937 17.8276 9.52441 17.9725 9.31087 18.0415C9.49623 18.3161 9.78796 18.5108 10.1865 18.6254C10.585 18.7478 10.9835 18.8088 11.3819 18.8088C11.937 18.8088 12.4387 18.6484 12.8872 18.3278C13.3355 18.0068 13.6666 17.5335 13.8801 16.9074C14.0936 16.2813 14.2004 15.5709 14.2004 14.7766C14.2004 13.9137 14.0827 13.1765 13.8481 12.5659C13.6201 11.9473 13.2821 11.4891 12.8338 11.1912C12.3991 10.8976 11.8955 10.7428 11.3819 10.7447C11.0402 10.7447 10.6135 10.8974 10.1009 11.2029L9.16146 11.7069V11.2029L13.3889 5.15474H7.5389V11.4316C7.5389 11.9511 7.64567 12.3788 7.8592 12.7148C8.07273 13.0509 8.40001 13.2188 8.84155 13.2188C9.18265 13.2188 9.51032 13.0967 9.82351 12.852C10.1388 12.6054 10.413 12.3035 10.6347 11.9591C10.6632 11.8898 10.6988 11.8403 10.7415 11.8097C10.7798 11.7734 10.829 11.7532 10.8802 11.7526C10.9584 11.7526 11.0509 11.7946 11.1579 11.8788C11.2575 12.0007 11.3073 12.142 11.3073 12.3024C11.2951 12.4104 11.2772 12.5174 11.2537 12.6233C11.012 13.2036 10.6774 13.6465 10.2503 13.9519C9.83457 14.2537 9.34339 14.4134 8.84155 14.4102C7.5745 14.4102 6.69894 14.1428 6.21514 13.6085C5.73133 13.0737 5.48929 12.3481 5.48929 11.432V5.15474H2.5V3.98614H5.48929V1.32893L4.80608 0.595201V0H6.79158L7.53861 0.412159V3.98614L15.2676 3.96341L16.0365 4.78802L11.2966 9.87402C11.5836 9.75122 11.8858 9.67407 12.1934 9.64485C12.7058 9.64485 13.2821 9.82057 13.9227 10.1719C14.5704 10.5155 15.0686 10.9892 15.4171 11.592C15.7659 12.1878 15.99 12.7606 16.0898 13.3104C16.1966 13.8604 16.25 14.3489 16.25 14.7766C16.25 15.7543 16.0577 16.6627 15.6735 17.5032C15.2892 18.3429 14.7056 18.969 13.9227 19.3816C13.1398 19.794 12.2928 20 11.3819 20Z" fill="#2C7DF7"/>
</svg>
